<svg xmlns="http://www.w3.org/2000/svg" xmlns:xlink="http://www.w3.org/1999/xlink" contentStyleType="text/css" data-diagram-type="CLASS" height="773px" preserveAspectRatio="none" style="width:620px;height:773px;background:#FFFFFF;" version="1.1" viewBox="0 0 620 773" width="620px" zoomAndPan="magnify"><defs/><g><!--class User--><g id="elem_User"><rect codeLine="3" fill="#F1F1F1" height="83.2188" id="User" rx="2.5" ry="2.5" style="stroke:#181818;stroke-width:0.5;" width="105.3721" x="276.75" y="7"/><ellipse cx="311.4661" cy="23" fill="#ADD1B2" rx="11" ry="11" style="stroke:#181818;stroke-width:1;"/><path d="M310.3254,23.7969 L310.3254,26.2969 L314.6536,26.2969 L314.6536,25.375 Q314.6536,24.7656 314.8879,24.5 Q315.1379,24.2344 315.5129,24.2344 Q315.8879,24.2344 316.1223,24.5 Q316.3567,24.7656 316.3567,25.375 L316.3567,28 L308.3567,28 Q307.7317,28 307.4661,27.7656 Q307.2161,27.5313 307.2161,27.1406 Q307.2161,26.7656 307.4817,26.5313 Q307.7473,26.2969 308.3567,26.2969 L308.6223,26.2969 L308.6223,19.6406 L308.3567,19.6406 Q307.7317,19.6406 307.4661,19.4063 Q307.2161,19.1719 307.2161,18.7813 Q307.2161,18.4063 307.4661,18.1719 Q307.7317,17.9375 308.3567,17.9375 L315.9817,17.9375 L315.9817,20.5313 Q315.9817,21.1406 315.7473,21.4063 Q315.5286,21.6563 315.1379,21.6563 Q314.7629,21.6563 314.5286,21.4063 Q314.2942,21.1406 314.2942,20.5313 L314.2942,19.6406 L310.3254,19.6406 L310.3254,22.0938 L311.8098,22.0938 Q311.8098,21.4375 311.9348,21.25 Q312.2004,20.8438 312.6692,20.8438 Q313.0442,20.8438 313.2786,21.1094 Q313.5129,21.3594 313.5129,21.9688 L313.5129,23.9375 Q313.5129,24.4844 313.3879,24.6719 Q313.1223,25.0625 312.6692,25.0625 Q312.2004,25.0625 311.9348,24.6563 Q311.8098,24.4688 311.8098,23.7969 L310.3254,23.7969 Z " fill="#000000"/><text fill="#000000" font-family="sans-serif" font-size="14" lengthAdjust="spacing" textLength="29.5586" x="329.8474" y="28.7285">User</text><line style="stroke:#181818;stroke-width:0.5;" x1="277.75" x2="381.1221" y1="39" y2="39"/><ellipse cx="287.75" cy="53.3047" fill="#000000" rx="3" ry="3" style="stroke:#000000;stroke-width:1;"/><text fill="#000000" font-family="sans-serif" font-size="14" lengthAdjust="spacing" textLength="65.3721" x="296.75" y="57.5332">id : integer</text><line style="stroke:#181818;stroke-width:1;" x1="277.75" x2="381.1221" y1="64.6094" y2="64.6094"/><text fill="#000000" font-family="sans-serif" font-size="14" lengthAdjust="spacing" textLength="93.3721" x="282.75" y="83.1426">name : varchar</text></g><!--class Post--><g id="elem_Post"><rect codeLine="9" fill="#F1F1F1" height="206.4844" id="Post" rx="2.5" ry="2.5" style="stroke:#181818;stroke-width:0.5;" width="285.834" x="186.25" y="150"/><ellipse cx="310.9102" cy="166" fill="#ADD1B2" rx="11" ry="11" style="stroke:#181818;stroke-width:1;"/><path d="M309.7695,166.7969 L309.7695,169.2969 L314.0977,169.2969 L314.0977,168.375 Q314.0977,167.7656 314.332,167.5 Q314.582,167.2344 314.957,167.2344 Q315.332,167.2344 315.5664,167.5 Q315.8008,167.7656 315.8008,168.375 L315.8008,171 L307.8008,171 Q307.1758,171 306.9102,170.7656 Q306.6602,170.5313 306.6602,170.1406 Q306.6602,169.7656 306.9258,169.5313 Q307.1914,169.2969 307.8008,169.2969 L308.0664,169.2969 L308.0664,162.6406 L307.8008,162.6406 Q307.1758,162.6406 306.9102,162.4063 Q306.6602,162.1719 306.6602,161.7813 Q306.6602,161.4063 306.9102,161.1719 Q307.1758,160.9375 307.8008,160.9375 L315.4258,160.9375 L315.4258,163.5313 Q315.4258,164.1406 315.1914,164.4063 Q314.9727,164.6563 314.582,164.6563 Q314.207,164.6563 313.9727,164.4063 Q313.7383,164.1406 313.7383,163.5313 L313.7383,162.6406 L309.7695,162.6406 L309.7695,165.0938 L311.2539,165.0938 Q311.2539,164.4375 311.3789,164.25 Q311.6445,163.8438 312.1133,163.8438 Q312.4883,163.8438 312.7227,164.1094 Q312.957,164.3594 312.957,164.9688 L312.957,166.9375 Q312.957,167.4844 312.832,167.6719 Q312.5664,168.0625 312.1133,168.0625 Q311.6445,168.0625 311.3789,167.6563 Q311.2539,167.4688 311.2539,166.7969 L309.7695,166.7969 Z " fill="#000000"/><text fill="#000000" font-family="sans-serif" font-size="14" lengthAdjust="spacing" textLength="28.0137" x="331.4102" y="171.7285">Post</text><line style="stroke:#181818;stroke-width:0.5;" x1="187.25" x2="471.084" y1="182" y2="182"/><ellipse cx="197.25" cy="196.3047" fill="#000000" rx="3" ry="3" style="stroke:#000000;stroke-width:1;"/><text fill="#000000" font-family="sans-serif" font-size="14" lengthAdjust="spacing" textLength="65.3721" x="206.25" y="200.5332">id : integer</text><line style="stroke:#181818;stroke-width:1;" x1="187.25" x2="471.084" y1="207.6094" y2="207.6094"/><text fill="#000000" font-family="sans-serif" font-size="14" lengthAdjust="spacing" textLength="80.1377" x="206.25" y="226.1426">title : varchar</text><text fill="#000000" font-family="sans-serif" font-size="14" lengthAdjust="spacing" textLength="64.5928" x="206.25" y="243.752">body : text</text><text fill="#000000" font-family="sans-serif" font-size="14" lengthAdjust="spacing" textLength="259.834" x="206.25" y="261.3613">postType : enum (QUESTION, ANSWER)</text><ellipse cx="197.25" cy="274.7422" fill="#000000" rx="3" ry="3" style="stroke:#000000;stroke-width:1;"/><text fill="#000000" font-family="sans-serif" font-size="14" lengthAdjust="spacing" textLength="112.8545" x="206.25" y="278.9707">author_id : integer</text><text fill="#000000" font-family="sans-serif" font-size="14" lengthAdjust="spacing" textLength="112.8545" x="206.25" y="296.5801">parent_id : integer</text><text fill="#000000" font-family="sans-serif" font-size="14" lengthAdjust="spacing" textLength="118.2891" x="206.25" y="314.1895">answer_id : integer</text><text fill="#000000" font-family="sans-serif" font-size="14" lengthAdjust="spacing" textLength="122.9375" x="206.25" y="331.7988">created : timestamp</text><text fill="#000000" font-family="sans-serif" font-size="14" lengthAdjust="spacing" textLength="119.0615" x="206.25" y="349.4082">update : timestamp</text></g><!--class Comment--><g id="elem_Comment"><rect codeLine="22" fill="#F1F1F1" height="153.6563" id="Comment" rx="2.5" ry="2.5" style="stroke:#181818;stroke-width:0.5;" width="148.9375" x="70.75" y="416"/><ellipse cx="111.0647" cy="432" fill="#ADD1B2" rx="11" ry="11" style="stroke:#181818;stroke-width:1;"/><path d="M109.9241,432.7969 L109.9241,435.2969 L114.2522,435.2969 L114.2522,434.375 Q114.2522,433.7656 114.4866,433.5 Q114.7366,433.2344 115.1116,433.2344 Q115.4866,433.2344 115.7209,433.5 Q115.9553,433.7656 115.9553,434.375 L115.9553,437 L107.9553,437 Q107.3303,437 107.0647,436.7656 Q106.8147,436.5313 106.8147,436.1406 Q106.8147,435.7656 107.0803,435.5313 Q107.3459,435.2969 107.9553,435.2969 L108.2209,435.2969 L108.2209,428.6406 L107.9553,428.6406 Q107.3303,428.6406 107.0647,428.4063 Q106.8147,428.1719 106.8147,427.7813 Q106.8147,427.4063 107.0647,427.1719 Q107.3303,426.9375 107.9553,426.9375 L115.5803,426.9375 L115.5803,429.5313 Q115.5803,430.1406 115.3459,430.4063 Q115.1272,430.6563 114.7366,430.6563 Q114.3616,430.6563 114.1272,430.4063 Q113.8928,430.1406 113.8928,429.5313 L113.8928,428.6406 L109.9241,428.6406 L109.9241,431.0938 L111.4084,431.0938 Q111.4084,430.4375 111.5334,430.25 Q111.7991,429.8438 112.2678,429.8438 Q112.6428,429.8438 112.8772,430.1094 Q113.1116,430.3594 113.1116,430.9688 L113.1116,432.9375 Q113.1116,433.4844 112.9866,433.6719 Q112.7209,434.0625 112.2678,434.0625 Q111.7991,434.0625 111.5334,433.6563 Q111.4084,433.4688 111.4084,432.7969 L109.9241,432.7969 Z " fill="#000000"/><text fill="#000000" font-family="sans-serif" font-size="14" lengthAdjust="spacing" textLength="60.6826" x="130.6902" y="437.7285">Comment</text><line style="stroke:#181818;stroke-width:0.5;" x1="71.75" x2="218.6875" y1="448" y2="448"/><ellipse cx="81.75" cy="462.3047" fill="#000000" rx="3" ry="3" style="stroke:#000000;stroke-width:1;"/><text fill="#000000" font-family="sans-serif" font-size="14" lengthAdjust="spacing" textLength="65.3721" x="90.75" y="466.5332">id : integer</text><line style="stroke:#181818;stroke-width:1;" x1="71.75" x2="218.6875" y1="473.6094" y2="473.6094"/><text fill="#000000" font-family="sans-serif" font-size="14" lengthAdjust="spacing" textLength="64.5928" x="90.75" y="492.1426">body : text</text><ellipse cx="81.75" cy="505.5234" fill="#000000" rx="3" ry="3" style="stroke:#000000;stroke-width:1;"/><text fill="#000000" font-family="sans-serif" font-size="14" lengthAdjust="spacing" textLength="112.8545" x="90.75" y="509.752">author_id : integer</text><ellipse cx="81.75" cy="523.1328" fill="#000000" rx="3" ry="3" style="stroke:#000000;stroke-width:1;"/><text fill="#000000" font-family="sans-serif" font-size="14" lengthAdjust="spacing" textLength="99.6201" x="90.75" y="527.3613">post_id : integer</text><text fill="#000000" font-family="sans-serif" font-size="14" lengthAdjust="spacing" textLength="122.9375" x="90.75" y="544.9707">created : timestamp</text><text fill="#000000" font-family="sans-serif" font-size="14" lengthAdjust="spacing" textLength="119.0615" x="90.75" y="562.5801">update : timestamp</text></g><!--class Vote--><g id="elem_Vote"><rect codeLine="32" fill="#F1F1F1" height="136.0469" id="Vote" rx="2.5" ry="2.5" style="stroke:#181818;stroke-width:0.5;" width="255.5098" x="17.25" y="630"/><ellipse cx="126.355" cy="646" fill="#ADD1B2" rx="11" ry="11" style="stroke:#181818;stroke-width:1;"/><path d="M125.2144,646.7969 L125.2144,649.2969 L129.5425,649.2969 L129.5425,648.375 Q129.5425,647.7656 129.7769,647.5 Q130.0269,647.2344 130.4019,647.2344 Q130.7769,647.2344 131.0112,647.5 Q131.2456,647.7656 131.2456,648.375 L131.2456,651 L123.2456,651 Q122.6206,651 122.355,650.7656 Q122.105,650.5313 122.105,650.1406 Q122.105,649.7656 122.3706,649.5313 Q122.6362,649.2969 123.2456,649.2969 L123.5112,649.2969 L123.5112,642.6406 L123.2456,642.6406 Q122.6206,642.6406 122.355,642.4063 Q122.105,642.1719 122.105,641.7813 Q122.105,641.4063 122.355,641.1719 Q122.6206,640.9375 123.2456,640.9375 L130.8706,640.9375 L130.8706,643.5313 Q130.8706,644.1406 130.6362,644.4063 Q130.4175,644.6563 130.0269,644.6563 Q129.6519,644.6563 129.4175,644.4063 Q129.1831,644.1406 129.1831,643.5313 L129.1831,642.6406 L125.2144,642.6406 L125.2144,645.0938 L126.6987,645.0938 Q126.6987,644.4375 126.8237,644.25 Q127.0894,643.8438 127.5581,643.8438 Q127.9331,643.8438 128.1675,644.1094 Q128.4019,644.3594 128.4019,644.9688 L128.4019,646.9375 Q128.4019,647.4844 128.2769,647.6719 Q128.0112,648.0625 127.5581,648.0625 Q127.0894,648.0625 126.8237,647.6563 Q126.6987,647.4688 126.6987,646.7969 L125.2144,646.7969 Z " fill="#000000"/><text fill="#000000" font-family="sans-serif" font-size="14" lengthAdjust="spacing" textLength="28.7998" x="146.855" y="651.7285">Vote</text><line style="stroke:#181818;stroke-width:0.5;" x1="18.25" x2="271.7598" y1="662" y2="662"/><ellipse cx="28.25" cy="676.3047" fill="#000000" rx="3" ry="3" style="stroke:#000000;stroke-width:1;"/><text fill="#000000" font-family="sans-serif" font-size="14" lengthAdjust="spacing" textLength="65.3721" x="37.25" y="680.5332">id : integer</text><line style="stroke:#181818;stroke-width:1;" x1="18.25" x2="271.7598" y1="687.6094" y2="687.6094"/><ellipse cx="28.25" cy="701.9141" fill="#000000" rx="3" ry="3" style="stroke:#000000;stroke-width:1;"/><text fill="#000000" font-family="sans-serif" font-size="14" lengthAdjust="spacing" textLength="112.8545" x="37.25" y="706.1426">author_id : integer</text><ellipse cx="28.25" cy="719.5234" fill="#000000" rx="3" ry="3" style="stroke:#000000;stroke-width:1;"/><text fill="#000000" font-family="sans-serif" font-size="14" lengthAdjust="spacing" textLength="99.6201" x="37.25" y="723.752">post_id : integer</text><text fill="#000000" font-family="sans-serif" font-size="14" lengthAdjust="spacing" textLength="122.9375" x="37.25" y="741.3613">created : timestamp</text><text fill="#000000" font-family="sans-serif" font-size="14" lengthAdjust="spacing" textLength="229.5098" x="37.25" y="758.9707">type : enum (POSITIVE, NEGATIVE)</text></g><!--class Tag--><g id="elem_Tag"><rect codeLine="41" fill="#F1F1F1" height="100.8281" id="Tag" rx="2.5" ry="2.5" style="stroke:#181818;stroke-width:0.5;" width="125.6201" x="326.25" y="442.5"/><ellipse cx="372.748" cy="458.5" fill="#ADD1B2" rx="11" ry="11" style="stroke:#181818;stroke-width:1;"/><path d="M371.6074,459.2969 L371.6074,461.7969 L375.9355,461.7969 L375.9355,460.875 Q375.9355,460.2656 376.1699,460 Q376.4199,459.7344 376.7949,459.7344 Q377.1699,459.7344 377.4043,460 Q377.6387,460.2656 377.6387,460.875 L377.6387,463.5 L369.6387,463.5 Q369.0137,463.5 368.748,463.2656 Q368.498,463.0313 368.498,462.6406 Q368.498,462.2656 368.7637,462.0313 Q369.0293,461.7969 369.6387,461.7969 L369.9043,461.7969 L369.9043,455.1406 L369.6387,455.1406 Q369.0137,455.1406 368.748,454.9063 Q368.498,454.6719 368.498,454.2813 Q368.498,453.9063 368.748,453.6719 Q369.0137,453.4375 369.6387,453.4375 L377.2637,453.4375 L377.2637,456.0313 Q377.2637,456.6406 377.0293,456.9063 Q376.8105,457.1563 376.4199,457.1563 Q376.0449,457.1563 375.8105,456.9063 Q375.5762,456.6406 375.5762,456.0313 L375.5762,455.1406 L371.6074,455.1406 L371.6074,457.5938 L373.0918,457.5938 Q373.0918,456.9375 373.2168,456.75 Q373.4824,456.3438 373.9512,456.3438 Q374.3262,456.3438 374.5605,456.6094 Q374.7949,456.8594 374.7949,457.4688 L374.7949,459.4375 Q374.7949,459.9844 374.6699,460.1719 Q374.4043,460.5625 373.9512,460.5625 Q373.4824,460.5625 373.2168,460.1563 Q373.0918,459.9688 373.0918,459.2969 L371.6074,459.2969 Z " fill="#000000"/><text fill="#000000" font-family="sans-serif" font-size="14" lengthAdjust="spacing" textLength="24.124" x="393.248" y="464.2285">Tag</text><line style="stroke:#181818;stroke-width:0.5;" x1="327.25" x2="450.8701" y1="474.5" y2="474.5"/><ellipse cx="337.25" cy="488.8047" fill="#000000" rx="3" ry="3" style="stroke:#000000;stroke-width:1;"/><text fill="#000000" font-family="sans-serif" font-size="14" lengthAdjust="spacing" textLength="65.3721" x="346.25" y="493.0332">id : integer</text><line style="stroke:#181818;stroke-width:1;" x1="327.25" x2="450.8701" y1="500.1094" y2="500.1094"/><text fill="#000000" font-family="sans-serif" font-size="14" lengthAdjust="spacing" textLength="93.3721" x="346.25" y="518.6426">name : varchar</text><ellipse cx="337.25" cy="532.0234" fill="#000000" rx="3" ry="3" style="stroke:#000000;stroke-width:1;"/><text fill="#000000" font-family="sans-serif" font-size="14" lengthAdjust="spacing" textLength="99.6201" x="346.25" y="536.252">post_id : integer</text></g><!--class PostSubscribe--><g id="elem_PostSubscribe"><rect codeLine="48" fill="#F1F1F1" height="83.2188" id="PostSubscribe" rx="2.5" ry="2.5" style="stroke:#181818;stroke-width:0.5;" width="126.3926" x="487.25" y="451.5"/><ellipse cx="504.1058" cy="467.5" fill="#ADD1B2" rx="11" ry="11" style="stroke:#181818;stroke-width:1;"/><path d="M502.9652,468.2969 L502.9652,470.7969 L507.2933,470.7969 L507.2933,469.875 Q507.2933,469.2656 507.5277,469 Q507.7777,468.7344 508.1527,468.7344 Q508.5277,468.7344 508.7621,469 Q508.9964,469.2656 508.9964,469.875 L508.9964,472.5 L500.9964,472.5 Q500.3714,472.5 500.1058,472.2656 Q499.8558,472.0313 499.8558,471.6406 Q499.8558,471.2656 500.1214,471.0313 Q500.3871,470.7969 500.9964,470.7969 L501.2621,470.7969 L501.2621,464.1406 L500.9964,464.1406 Q500.3714,464.1406 500.1058,463.9063 Q499.8558,463.6719 499.8558,463.2813 Q499.8558,462.9063 500.1058,462.6719 Q500.3714,462.4375 500.9964,462.4375 L508.6214,462.4375 L508.6214,465.0313 Q508.6214,465.6406 508.3871,465.9063 Q508.1683,466.1563 507.7777,466.1563 Q507.4027,466.1563 507.1683,465.9063 Q506.9339,465.6406 506.9339,465.0313 L506.9339,464.1406 L502.9652,464.1406 L502.9652,466.5938 L504.4496,466.5938 Q504.4496,465.9375 504.5746,465.75 Q504.8402,465.3438 505.3089,465.3438 Q505.6839,465.3438 505.9183,465.6094 Q506.1527,465.8594 506.1527,466.4688 L506.1527,468.4375 Q506.1527,468.9844 506.0277,469.1719 Q505.7621,469.5625 505.3089,469.5625 Q504.8402,469.5625 504.5746,469.1563 Q504.4496,468.9688 504.4496,468.2969 L502.9652,468.2969 Z " fill="#000000"/><text fill="#000000" font-family="sans-serif" font-size="14" lengthAdjust="spacing" textLength="90.2686" x="518.5182" y="473.2285">PostSubscribe</text><line style="stroke:#181818;stroke-width:0.5;" x1="488.25" x2="612.6426" y1="483.5" y2="483.5"/><ellipse cx="498.25" cy="497.8047" fill="#000000" rx="3" ry="3" style="stroke:#000000;stroke-width:1;"/><text fill="#000000" font-family="sans-serif" font-size="14" lengthAdjust="spacing" textLength="99.6201" x="507.25" y="502.0332">post_id : integer</text><ellipse cx="498.25" cy="515.4141" fill="#000000" rx="3" ry="3" style="stroke:#000000;stroke-width:1;"/><text fill="#000000" font-family="sans-serif" font-size="14" lengthAdjust="spacing" textLength="100.3926" x="507.25" y="519.6426">user_id : integer</text><line style="stroke:#181818;stroke-width:0.5;" x1="488.25" x2="612.6426" y1="526.7188" y2="526.7188"/></g><!--class TagSubscribe--><g id="elem_TagSubscribe"><rect codeLine="53" fill="#F1F1F1" height="83.2188" id="TagSubscribe" rx="2.5" ry="2.5" style="stroke:#181818;stroke-width:0.5;" width="126.3926" x="464.25" y="656.5"/><ellipse cx="482.8562" cy="672.5" fill="#ADD1B2" rx="11" ry="11" style="stroke:#181818;stroke-width:1;"/><path d="M481.7155,673.2969 L481.7155,675.7969 L486.0437,675.7969 L486.0437,674.875 Q486.0437,674.2656 486.278,674 Q486.528,673.7344 486.903,673.7344 Q487.278,673.7344 487.5124,674 Q487.7468,674.2656 487.7468,674.875 L487.7468,677.5 L479.7468,677.5 Q479.1218,677.5 478.8562,677.2656 Q478.6062,677.0313 478.6062,676.6406 Q478.6062,676.2656 478.8718,676.0313 Q479.1374,675.7969 479.7468,675.7969 L480.0124,675.7969 L480.0124,669.1406 L479.7468,669.1406 Q479.1218,669.1406 478.8562,668.9063 Q478.6062,668.6719 478.6062,668.2813 Q478.6062,667.9063 478.8562,667.6719 Q479.1218,667.4375 479.7468,667.4375 L487.3718,667.4375 L487.3718,670.0313 Q487.3718,670.6406 487.1374,670.9063 Q486.9187,671.1563 486.528,671.1563 Q486.153,671.1563 485.9187,670.9063 Q485.6843,670.6406 485.6843,670.0313 L485.6843,669.1406 L481.7155,669.1406 L481.7155,671.5938 L483.1999,671.5938 Q483.1999,670.9375 483.3249,670.75 Q483.5905,670.3438 484.0593,670.3438 Q484.4343,670.3438 484.6687,670.6094 Q484.903,670.8594 484.903,671.4688 L484.903,673.4375 Q484.903,673.9844 484.778,674.1719 Q484.5124,674.5625 484.0593,674.5625 Q483.5905,674.5625 483.3249,674.1563 Q483.1999,673.9688 483.1999,673.2969 L481.7155,673.2969 Z " fill="#000000"/><text fill="#000000" font-family="sans-serif" font-size="14" lengthAdjust="spacing" textLength="86.3789" x="497.6575" y="678.2285">TagSubscribe</text><line style="stroke:#181818;stroke-width:0.5;" x1="465.25" x2="589.6426" y1="688.5" y2="688.5"/><ellipse cx="475.25" cy="702.8047" fill="#000000" rx="3" ry="3" style="stroke:#000000;stroke-width:1;"/><text fill="#000000" font-family="sans-serif" font-size="14" lengthAdjust="spacing" textLength="92.6201" x="484.25" y="707.0332">tag_id : integer</text><ellipse cx="475.25" cy="720.4141" fill="#000000" rx="3" ry="3" style="stroke:#000000;stroke-width:1;"/><text fill="#000000" font-family="sans-serif" font-size="14" lengthAdjust="spacing" textLength="100.3926" x="484.25" y="724.6426">user_id : integer</text><line style="stroke:#181818;stroke-width:0.5;" x1="465.25" x2="589.6426" y1="731.7188" y2="731.7188"/></g><!--link User to Post--><g id="link_User_Post"><path codeLine="59" d="M329.25,98.38 C329.25,115.79 329.25,110.84 329.25,131.93 " fill="none" id="User-Post" style="stroke:#181818;stroke-width:1;"/><line style="stroke:#181818;stroke-width:1;" x1="325.25" x2="333.25" y1="94.38" y2="94.38"/><line style="stroke:#181818;stroke-width:1;" x1="325.25" x2="333.25" y1="97.38" y2="97.38"/><line style="stroke:#181818;stroke-width:1;" x1="329.25" x2="329.25" y1="98.38" y2="90.38"/><line style="stroke:#181818;stroke-width:1;" x1="329.25" x2="335.25" y1="141.93" y2="149.93"/><line style="stroke:#181818;stroke-width:1;" x1="329.25" x2="323.25" y1="141.93" y2="149.93"/><line style="stroke:#181818;stroke-width:1;" x1="329.25" x2="329.25" y1="141.93" y2="149.93"/><ellipse cx="329.25" cy="135.93" fill="none" rx="4" ry="4" style="stroke:#181818;stroke-width:1;"/><text fill="#000000" font-family="sans-serif" font-size="13" lengthAdjust="spacing" textLength="36.8608" x="292.25" y="116.6551">author</text></g><!--link User to Comment--><g id="link_User_Comment"><path codeLine="60" d="M268.51,63 C209.03,63 128.5,63 128.5,63 C128.5,63 128.5,273.83 128.5,397.63 " fill="none" id="User-Comment" style="stroke:#181818;stroke-width:1;"/><line style="stroke:#181818;stroke-width:1;" x1="272.51" x2="272.51" y1="59" y2="67"/><line style="stroke:#181818;stroke-width:1;" x1="269.51" x2="269.51" y1="59" y2="67"/><line style="stroke:#181818;stroke-width:1;" x1="268.51" x2="276.51" y1="63" y2="63"/><line style="stroke:#181818;stroke-width:1;" x1="128.5" x2="134.5" y1="407.63" y2="415.63"/><line style="stroke:#181818;stroke-width:1;" x1="128.5" x2="122.5" y1="407.63" y2="415.63"/><line style="stroke:#181818;stroke-width:1;" x1="128.5" x2="128.5" y1="407.63" y2="415.63"/><ellipse cx="128.5" cy="401.63" fill="none" rx="4" ry="4" style="stroke:#181818;stroke-width:1;"/><text fill="#000000" font-family="sans-serif" font-size="13" lengthAdjust="spacing" textLength="36.8608" x="91.5" y="161.8051">author</text></g><!--link User to Vote--><g id="link_User_Vote"><path codeLine="61" d="M268.6,35 C186.18,35 44,35 44,35 C44,35 44,442.67 44,611.85 " fill="none" id="User-Vote" style="stroke:#181818;stroke-width:1;"/><line style="stroke:#181818;stroke-width:1;" x1="272.6" x2="272.6" y1="31" y2="39"/><line style="stroke:#181818;stroke-width:1;" x1="269.6" x2="269.6" y1="31" y2="39"/><line style="stroke:#181818;stroke-width:1;" x1="268.6" x2="276.6" y1="35" y2="35"/><line style="stroke:#181818;stroke-width:1;" x1="44" x2="50" y1="621.85" y2="629.85"/><line style="stroke:#181818;stroke-width:1;" x1="44" x2="38" y1="621.85" y2="629.85"/><line style="stroke:#181818;stroke-width:1;" x1="44" x2="44" y1="621.85" y2="629.85"/><ellipse cx="44" cy="615.85" fill="none" rx="4" ry="4" style="stroke:#181818;stroke-width:1;"/><text fill="#000000" font-family="sans-serif" font-size="13" lengthAdjust="spacing" textLength="36.8608" x="7" y="212.6251">author</text></g><!--link Post to Comment--><g id="link_Post_Comment"><path codeLine="63" d="M203,364.17 C203,384.12 203,378.7 203,397.65 " fill="none" id="Post-Comment" style="stroke:#181818;stroke-width:1;"/><line style="stroke:#181818;stroke-width:1;" x1="199" x2="207" y1="360.17" y2="360.17"/><line style="stroke:#181818;stroke-width:1;" x1="199" x2="207" y1="363.17" y2="363.17"/><line style="stroke:#181818;stroke-width:1;" x1="203" x2="203" y1="364.17" y2="356.17"/><line style="stroke:#181818;stroke-width:1;" x1="203" x2="209" y1="407.65" y2="415.65"/><line style="stroke:#181818;stroke-width:1;" x1="203" x2="197" y1="407.65" y2="415.65"/><line style="stroke:#181818;stroke-width:1;" x1="203" x2="203" y1="407.65" y2="415.65"/><ellipse cx="203" cy="401.65" fill="none" rx="4" ry="4" style="stroke:#181818;stroke-width:1;"/><text fill="#000000" font-family="sans-serif" font-size="13" lengthAdjust="spacing" textLength="24.5718" x="178" y="382.4051">post</text></g><!--link Post to Vote--><g id="link_Post_Vote"><path codeLine="64" d="M246.5,364.21 C246.5,448.43 246.5,539.01 246.5,611.93 " fill="none" id="Post-Vote" style="stroke:#181818;stroke-width:1;"/><line style="stroke:#181818;stroke-width:1;" x1="242.5" x2="250.5" y1="360.21" y2="360.21"/><line style="stroke:#181818;stroke-width:1;" x1="242.5" x2="250.5" y1="363.21" y2="363.21"/><line style="stroke:#181818;stroke-width:1;" x1="246.5" x2="246.5" y1="364.21" y2="356.21"/><line style="stroke:#181818;stroke-width:1;" x1="246.5" x2="252.5" y1="621.93" y2="629.93"/><line style="stroke:#181818;stroke-width:1;" x1="246.5" x2="240.5" y1="621.93" y2="629.93"/><line style="stroke:#181818;stroke-width:1;" x1="246.5" x2="246.5" y1="621.93" y2="629.93"/><ellipse cx="246.5" cy="615.93" fill="none" rx="4" ry="4" style="stroke:#181818;stroke-width:1;"/><text fill="#000000" font-family="sans-serif" font-size="13" lengthAdjust="spacing" textLength="24.5718" x="221.5" y="489.5651">post</text></g><!--link Post to Tag--><g id="link_Post_Tag"><path codeLine="65" d="M389.25,364.17 C389.25,394.03 389.25,399.3 389.25,424.4 " fill="none" id="Post-Tag" style="stroke:#181818;stroke-width:1;"/><line style="stroke:#181818;stroke-width:1;" x1="385.25" x2="393.25" y1="360.17" y2="360.17"/><line style="stroke:#181818;stroke-width:1;" x1="385.25" x2="393.25" y1="363.17" y2="363.17"/><line style="stroke:#181818;stroke-width:1;" x1="389.25" x2="389.25" y1="364.17" y2="356.17"/><line style="stroke:#181818;stroke-width:1;" x1="389.25" x2="395.25" y1="434.4" y2="442.4"/><line style="stroke:#181818;stroke-width:1;" x1="389.25" x2="383.25" y1="434.4" y2="442.4"/><line style="stroke:#181818;stroke-width:1;" x1="389.25" x2="389.25" y1="434.4" y2="442.4"/><ellipse cx="389.25" cy="428.4" fill="none" rx="4" ry="4" style="stroke:#181818;stroke-width:1;"/><text fill="#000000" font-family="sans-serif" font-size="13" lengthAdjust="spacing" textLength="24.5718" x="364.25" y="395.7851">post</text></g><!--link Post to Post--><g id="link_Post_Post"><path codeLine="68" d="M442.08,131.76 C442.08,119.93 442.08,130 442.08,130 C442.08,130 476,130 476,130 C476,130 476,376 476,376 C476,376 470.65,376 470.65,376 C470.65,376 470.65,376.07 470.65,364.24 " fill="none" id="Post-Post" style="stroke:#181818;stroke-width:1;"/><line style="stroke:#181818;stroke-width:1;" x1="442.08" x2="448.08" y1="141.76" y2="149.76"/><line style="stroke:#181818;stroke-width:1;" x1="442.08" x2="436.08" y1="141.76" y2="149.76"/><line style="stroke:#181818;stroke-width:1;" x1="442.08" x2="442.08" y1="141.76" y2="149.76"/><ellipse cx="442.08" cy="135.76" fill="none" rx="4" ry="4" style="stroke:#181818;stroke-width:1;"/><line style="stroke:#181818;stroke-width:1;" x1="466.65" x2="474.65" y1="360.24" y2="360.24"/><line style="stroke:#181818;stroke-width:1;" x1="466.65" x2="474.65" y1="363.24" y2="363.24"/><line style="stroke:#181818;stroke-width:1;" x1="470.65" x2="470.65" y1="364.24" y2="356.24"/><text fill="#000000" font-family="sans-serif" font-size="13" lengthAdjust="spacing" textLength="36.8608" x="482" y="258.2151">parent</text></g><!--link Post to Post--><g id="link_Post_Post"><path codeLine="69" d="M411.92,131.83 C411.92,109.28 411.92,110 411.92,110 C411.92,110 479.75,110 479.75,110 C479.75,110 479.75,396 479.75,396 C479.75,396 469.05,396 469.05,396 C469.05,396 469.05,386.72 469.05,364.17 " fill="none" id="Post-Post-1" style="stroke:#181818;stroke-width:1;"/><line style="stroke:#181818;stroke-width:1;" x1="411.92" x2="417.92" y1="141.83" y2="149.83"/><line style="stroke:#181818;stroke-width:1;" x1="411.92" x2="405.92" y1="141.83" y2="149.83"/><line style="stroke:#181818;stroke-width:1;" x1="411.92" x2="411.92" y1="141.83" y2="149.83"/><ellipse cx="411.92" cy="135.83" fill="none" rx="4" ry="4" style="stroke:#181818;stroke-width:1;"/><line style="stroke:#181818;stroke-width:1;" x1="465.05" x2="473.05" y1="360.17" y2="360.17"/><line style="stroke:#181818;stroke-width:1;" x1="465.05" x2="473.05" y1="363.17" y2="363.17"/><line style="stroke:#181818;stroke-width:1;" x1="469.05" x2="469.05" y1="364.17" y2="356.17"/><text fill="#000000" font-family="sans-serif" font-size="13" lengthAdjust="spacing" textLength="41.9072" x="485.75" y="215.9251">answer</text></g><!--link Post to PostSubscribe--><g id="link_Post_PostSubscribe"><path codeLine="72" d="M465.85,364.17 C465.85,429.22 465.85,493 465.85,493 C465.85,493 456.94,493 469.15,493 " fill="none" id="Post-PostSubscribe" style="stroke:#181818;stroke-width:1;"/><line style="stroke:#181818;stroke-width:1;" x1="461.85" x2="469.85" y1="360.17" y2="360.17"/><line style="stroke:#181818;stroke-width:1;" x1="461.85" x2="469.85" y1="363.17" y2="363.17"/><line style="stroke:#181818;stroke-width:1;" x1="465.85" x2="465.85" y1="364.17" y2="356.17"/><line style="stroke:#181818;stroke-width:1;" x1="479.15" x2="487.15" y1="493" y2="487"/><line style="stroke:#181818;stroke-width:1;" x1="479.15" x2="487.15" y1="493" y2="499"/><line style="stroke:#181818;stroke-width:1;" x1="479.15" x2="487.15" y1="493" y2="493"/><ellipse cx="473.15" cy="493" fill="none" rx="4" ry="4" style="stroke:#181818;stroke-width:1;"/></g><!--link User to PostSubscribe--><g id="link_User_PostSubscribe"><path codeLine="73" d="M389.9,35 C455.27,35 550.25,35 550.25,35 C550.25,35 550.25,320.08 550.25,433.14 " fill="none" id="User-PostSubscribe" style="stroke:#181818;stroke-width:1;"/><line style="stroke:#181818;stroke-width:1;" x1="385.9" x2="385.9" y1="39" y2="31"/><line style="stroke:#181818;stroke-width:1;" x1="388.9" x2="388.9" y1="39" y2="31"/><line style="stroke:#181818;stroke-width:1;" x1="389.9" x2="381.9" y1="35" y2="35"/><line style="stroke:#181818;stroke-width:1;" x1="550.25" x2="556.25" y1="443.14" y2="451.14"/><line style="stroke:#181818;stroke-width:1;" x1="550.25" x2="544.25" y1="443.14" y2="451.14"/><line style="stroke:#181818;stroke-width:1;" x1="550.25" x2="550.25" y1="443.14" y2="451.14"/><ellipse cx="550.25" cy="437.14" fill="none" rx="4" ry="4" style="stroke:#181818;stroke-width:1;"/></g><!--link Tag to TagSubscribe--><g id="link_Tag_TagSubscribe"><path codeLine="75" d="M460.37,539 C469.26,539 467.45,539 467.45,539 C467.45,539 467.45,591.12 467.45,638.22 " fill="none" id="Tag-TagSubscribe" style="stroke:#181818;stroke-width:1;"/><line style="stroke:#181818;stroke-width:1;" x1="456.37" x2="456.37" y1="543" y2="535"/><line style="stroke:#181818;stroke-width:1;" x1="459.37" x2="459.37" y1="543" y2="535"/><line style="stroke:#181818;stroke-width:1;" x1="460.37" x2="452.37" y1="539" y2="539"/><line style="stroke:#181818;stroke-width:1;" x1="467.45" x2="473.45" y1="648.22" y2="656.22"/><line style="stroke:#181818;stroke-width:1;" x1="467.45" x2="461.45" y1="648.22" y2="656.22"/><line style="stroke:#181818;stroke-width:1;" x1="467.45" x2="467.45" y1="648.22" y2="656.22"/><ellipse cx="467.45" cy="642.22" fill="none" rx="4" ry="4" style="stroke:#181818;stroke-width:1;"/></g><!--link User to TagSubscribe--><g id="link_User_TagSubscribe"><path codeLine="76" d="M389.9,63 C434.59,63 483.5,63 483.5,63 C483.5,63 483.5,497.07 483.5,638.34 " fill="none" id="User-TagSubscribe" style="stroke:#181818;stroke-width:1;"/><line style="stroke:#181818;stroke-width:1;" x1="385.9" x2="385.9" y1="67" y2="59"/><line style="stroke:#181818;stroke-width:1;" x1="388.9" x2="388.9" y1="67" y2="59"/><line style="stroke:#181818;stroke-width:1;" x1="389.9" x2="381.9" y1="63" y2="63"/><line style="stroke:#181818;stroke-width:1;" x1="483.5" x2="489.5" y1="648.34" y2="656.34"/><line style="stroke:#181818;stroke-width:1;" x1="483.5" x2="477.5" y1="648.34" y2="656.34"/><line style="stroke:#181818;stroke-width:1;" x1="483.5" x2="483.5" y1="648.34" y2="656.34"/><ellipse cx="483.5" cy="642.34" fill="none" rx="4" ry="4" style="stroke:#181818;stroke-width:1;"/></g><!--link Comment to Vote--><g id="link_Comment_Vote"><path codeLine="79" d="M145.25,578.21 C145.25,597.84 145.25,592.8 145.25,611.94 " fill="none" id="Comment-Vote" style="stroke:#181818;stroke-width:1;"/><line style="stroke:#181818;stroke-width:1;" x1="141.25" x2="149.25" y1="574.21" y2="574.21"/><line style="stroke:#181818;stroke-width:1;" x1="141.25" x2="149.25" y1="577.21" y2="577.21"/><line style="stroke:#181818;stroke-width:1;" x1="145.25" x2="145.25" y1="578.21" y2="570.21"/><line style="stroke:#181818;stroke-width:1;" x1="145.25" x2="151.25" y1="621.94" y2="629.94"/><line style="stroke:#181818;stroke-width:1;" x1="145.25" x2="139.25" y1="621.94" y2="629.94"/><line style="stroke:#181818;stroke-width:1;" x1="145.25" x2="145.25" y1="621.94" y2="629.94"/><ellipse cx="145.25" cy="615.94" fill="none" rx="4" ry="4" style="stroke:#181818;stroke-width:1;"/><text fill="#000000" font-family="sans-serif" font-size="13" lengthAdjust="spacing" textLength="105.9487" x="39.25" y="596.5751">votes (&#1095;&#1077;&#1088;&#1077;&#1079; post)</text></g><!--SRC=[hLDBJW914DttAIgp4GXp0NR64CC6L42Nfe4EJdG-wUbHYPZeIXDDl8766w0H9Nxm2ZKtigOdm7p0k70pqrslN_LxLTN-eULuN78RZYn7g84dm9Ngm6LCECfI0sZxGi8P0oY1rOCAM8uIVI4fO9hqSRWjA7hCPVU0ItO-vssvllg5HsUEaaI0ZjiRK429KqKxZ-YjI4q5X1FOKDXkLvkjMgDUXlLwSw-wKzIfUK1QvNxc1Z94Ah9HxlWd8dUsAmLN8eefonQ-uhP7qS3hKJGLN5ZRS6sRbh-uItjP9REaNVw3e5sNeDLg_kD-bUp5LgDPQzLsgsMeLpVNerKneQR5-tyVcEKgqcFK33f-LrgTcSTbgaiG-DdcfYHbaoZU_sEEDS3xy1A_S8hF-1NUu1Xe-npUuHjEc7uVmw5fkcVnp5V0YCjjfB3PqAo0TGiJ6DEvyjp8kv42Pymy4ZLY3aGs7d64dpXTgDUAOywvQvh3uTn2_8ICfLZyaEAK3rIL5_p62ILzft8axq_rBbUe1S8YeGlDooaf83QZJOIty_A4bt4n2k4LZiCB7EERdXKmWJet9SDa7b-fawFm3gWErpZ19v8z8Xmq-4Aa3vmKsIndfiZ7zFTp5nGDzWC0]--></g></svg>